<svg width="20" height="20" viewBox="0 0 20 20" fill="none" xmlns="http://www.w3.org/2000/svg">
<path fill-rule="evenodd" clip-rule="evenodd" d="M7.50008 18.9582H12.5001C17.0251 18.9582 18.9584 17.0248 18.9584 12.4998V7.49984C18.9584 2.97484 17.0251 1.0415 12.5001 1.0415H7.50008C2.97508 1.0415 1.04175 2.97484 1.04175 7.49984V12.4998C1.04175 17.0248 2.97508 18.9582 7.50008 18.9582ZM2.29175 7.49984C2.29175 3.65817 3.65841 2.2915 7.50008 2.2915H12.5001C16.3417 2.2915 17.7084 3.65817 17.7084 7.49984V12.4998C17.7084 16.3415 16.3417 17.7082 12.5001 17.7082H7.50008C3.65841 17.7082 2.29175 16.3415 2.29175 12.4998V7.49984ZM12.5001 11.6582C12.6251 11.7832 12.7834 11.8416 12.9418 11.8416C13.1001 11.8416 13.2584 11.7832 13.3834 11.6582C13.6251 11.4166 13.6251 11.0166 13.3834 10.7749L10.4418 7.83323C10.2001 7.59156 9.80009 7.59156 9.55842 7.83323L6.61675 10.7749C6.37508 11.0166 6.37508 11.4166 6.61675 11.6582C6.85842 11.8999 7.25842 11.8999 7.50008 11.6582L10.0001 9.15823L12.5001 11.6582Z" fill="#999FA6"/>
</svg>
